<mxfile host="app.diagrams.net" modified="2024-06-11T19:52:06.615Z" agent="Mozilla/5.0 (Windows NT 10.0; Win64; x64) AppleWebKit/537.36 (KHTML, like Gecko) Chrome/125.0.0.0 Safari/537.36" etag="uLCxPafkVghajHUz6SOR" version="24.4.3" type="device">
  <diagram name="1 oldal" id="v1HGcCUS4wn5SgERggEk">
    <mxGraphModel dx="2074" dy="1180" grid="1" gridSize="10" guides="1" tooltips="1" connect="1" arrows="1" fold="1" page="1" pageScale="1" pageWidth="827" pageHeight="1169" math="0" shadow="0">
      <root>
        <mxCell id="0" />
        <mxCell id="1" parent="0" />
        <mxCell id="PwEUeXgU7kQt8ljCZKcA-6" value="observability backend" style="rounded=0;whiteSpace=wrap;html=1;horizontal=1;verticalAlign=top;fillColor=#fff2cc;strokeColor=#d6b656;" vertex="1" parent="1">
          <mxGeometry x="490" y="250" width="260" height="90" as="geometry" />
        </mxCell>
        <mxCell id="PwEUeXgU7kQt8ljCZKcA-1" value="service1" style="rounded=0;whiteSpace=wrap;html=1;horizontal=1;verticalAlign=top;fillColor=#fff2cc;strokeColor=#d6b656;" vertex="1" parent="1">
          <mxGeometry x="70" y="250" width="260" height="90" as="geometry" />
        </mxCell>
        <mxCell id="PwEUeXgU7kQt8ljCZKcA-9" style="edgeStyle=orthogonalEdgeStyle;rounded=0;orthogonalLoop=1;jettySize=auto;html=1;exitX=1;exitY=0.5;exitDx=0;exitDy=0;" edge="1" parent="1" source="PwEUeXgU7kQt8ljCZKcA-2" target="PwEUeXgU7kQt8ljCZKcA-4">
          <mxGeometry relative="1" as="geometry" />
        </mxCell>
        <mxCell id="PwEUeXgU7kQt8ljCZKcA-2" value="instumentation" style="rounded=0;whiteSpace=wrap;html=1;fillColor=#ffe6cc;strokeColor=#d79b00;" vertex="1" parent="1">
          <mxGeometry x="90" y="290" width="100" height="30" as="geometry" />
        </mxCell>
        <mxCell id="PwEUeXgU7kQt8ljCZKcA-10" style="edgeStyle=orthogonalEdgeStyle;rounded=0;orthogonalLoop=1;jettySize=auto;html=1;exitX=1;exitY=0.5;exitDx=0;exitDy=0;entryX=0;entryY=0.5;entryDx=0;entryDy=0;" edge="1" parent="1" source="PwEUeXgU7kQt8ljCZKcA-4" target="PwEUeXgU7kQt8ljCZKcA-5">
          <mxGeometry relative="1" as="geometry" />
        </mxCell>
        <mxCell id="PwEUeXgU7kQt8ljCZKcA-4" value="exporter" style="rounded=0;whiteSpace=wrap;html=1;fillColor=#ffe6cc;strokeColor=#d79b00;" vertex="1" parent="1">
          <mxGeometry x="210" y="290" width="100" height="30" as="geometry" />
        </mxCell>
        <mxCell id="PwEUeXgU7kQt8ljCZKcA-11" style="edgeStyle=orthogonalEdgeStyle;rounded=0;orthogonalLoop=1;jettySize=auto;html=1;exitX=1;exitY=0.5;exitDx=0;exitDy=0;entryX=0;entryY=0.5;entryDx=0;entryDy=0;" edge="1" parent="1" source="PwEUeXgU7kQt8ljCZKcA-5" target="PwEUeXgU7kQt8ljCZKcA-7">
          <mxGeometry relative="1" as="geometry" />
        </mxCell>
        <mxCell id="PwEUeXgU7kQt8ljCZKcA-5" value="collector" style="rounded=0;whiteSpace=wrap;html=1;fillColor=#ffe6cc;strokeColor=#d79b00;" vertex="1" parent="1">
          <mxGeometry x="360" y="290" width="100" height="30" as="geometry" />
        </mxCell>
        <mxCell id="PwEUeXgU7kQt8ljCZKcA-12" style="edgeStyle=orthogonalEdgeStyle;rounded=0;orthogonalLoop=1;jettySize=auto;html=1;exitX=1;exitY=0.5;exitDx=0;exitDy=0;entryX=0;entryY=0.5;entryDx=0;entryDy=0;" edge="1" parent="1" source="PwEUeXgU7kQt8ljCZKcA-7" target="PwEUeXgU7kQt8ljCZKcA-8">
          <mxGeometry relative="1" as="geometry" />
        </mxCell>
        <mxCell id="PwEUeXgU7kQt8ljCZKcA-7" value="database" style="rounded=0;whiteSpace=wrap;html=1;fillColor=#ffe6cc;strokeColor=#d79b00;" vertex="1" parent="1">
          <mxGeometry x="510" y="290" width="100" height="30" as="geometry" />
        </mxCell>
        <mxCell id="PwEUeXgU7kQt8ljCZKcA-8" value="ui" style="rounded=0;whiteSpace=wrap;html=1;fillColor=#ffe6cc;strokeColor=#d79b00;" vertex="1" parent="1">
          <mxGeometry x="630" y="290" width="100" height="30" as="geometry" />
        </mxCell>
      </root>
    </mxGraphModel>
  </diagram>
</mxfile>
